<?xml version="1.0" standalone="no"?><!DOCTYPE svg PUBLIC "-//W3C//DTD SVG 1.1//EN" "http://www.w3.org/Graphics/SVG/1.1/DTD/svg11.dtd"><svg t="1729401873212" class="icon" viewBox="0 0 1024 1024" version="1.1" xmlns="http://www.w3.org/2000/svg" p-id="4841" width="256" height="256" xmlns:xlink="http://www.w3.org/1999/xlink"><path d="M799 490c-8.3-16.11-16.2-28.7-33.36-38.4a91.27 91.27 0 0 0-61.64-9.8c-41.41 7.84-60.39 43.12-59.18 82.3a5.16 5.16 0 0 0 8.73 3.62c9.25-8.78 17.91-15.14 31.15-15.4 11.57-0.22 20.11 9.43 27.48 16.78 9.57 9.55 20.4 17 34.28 18.18 19.31 1.65 37.3-11.94 36.89-10 11.3 21.76 2.63 62.16-6.82 82.67-13.81 30-34.84 46.58-68.87 49.53-89.82 7.8-124.46-63-181.64-116.05-60.21-55.88-119.58-113.3-203.14-129.9-82.69-16.38-180.88 4.11-223.15 84.28C73.25 558 75.9 610 90 663.13c9.41 35.48 33.09 88.19 67.53 110a45.09 45.09 0 0 1 13.7-4.26 41.78 41.78 0 0 0 6-8.11c4.73-8.89 17.85-10.28 24.7-3.18 8.14 8.44 17.06 15.91 26.15 23.3a15 15 0 0 1 1.33 1.31c25.27 0.71 50.86 1.7 76.61 2.78 12.24-5.92 18.28-23.32 34.44-22.87 16.42 0.46 23.8 13.66 35.62 22.57a17.34 17.34 0 0 1 3.47 3.48q25.85 1.1 51.78 2.06a16.59 16.59 0 0 1 5.95-3.71c8.19-3 13-10.63 17.31-17.78 5-8.45 17.72-10.72 24.7-3.18 8.28 8.94 16.17 18.22 25 26.67 22.34 0.37 44.62 0.5 66.76 0.24 2 0 3.91-0.11 5.87-0.16a17.6 17.6 0 0 1 3.06-1.24 7.45 7.45 0 0 1 1.47-0.35 4.81 4.81 0 0 1 1.06-0.94c-1.65 1.25 0.66-1.05 1.45-1.82 0.46-0.64 2-2.64 1.89-2.49l1.91-2.81c4.82-7 9.62-14.32 19.13-14.32 5.37 0 11 3 13.58 7.79 2.45 4.62 5.48 8.88 8.16 13.35 24.66-1.84 31.53 8.8 56.7 8.8 2.26 0 22.19-12.68 24.31-12.74a18.49 18.49 0 0 1 5.37-6.82l-0.29 0.22q0.6-0.51 1.17-1.05c0.52-0.51 1-1 1.5-1.58l0.19-0.28c0.46-0.72 0.91-1.44 1.34-2.17 5.19-8.87 17.42-10.21 24.7-3.18a40.42 40.42 0 0 1 5.9 6.36c12.29-6.35 22.61-16.75 35.1-32.94 38.38-49.78 60.03-139.59 45.8-201.21 0.7 0.45 1.44 0.82 2.17 1.23a131.28 131.28 0 0 1-3.19-5.51 75.93 75.93 0 0 0 45.91 3.12c13.93-3.42 23.65-14 32.66-24.44 12.71-14.7 24.86-29.69 43.29-12.58 3 2.81 9.11 1.09 8.73-3.62C953.35 417.89 819.62 419.09 799 490z" fill="#27A0F2" p-id="4842"></path><path d="M156.72 577.74m-14.78 0a14.78 14.78 0 1 0 29.56 0 14.78 14.78 0 1 0-29.56 0Z" fill="#FFFFFF" p-id="4843"></path><path d="M210.28 647.91c-12.06 26.27-34.19 38-62.55 38.1-28.76 0.08-42.9-21.3-65.72-34.25-5.75-3.26-10.9 5.58-5.16 8.83 12.35 7 22.25 17.13 33.81 25.26 12.29 8.64 27.09 10.42 41.7 10.38 29.81-0.08 54.44-16.3 66.76-43.15 2.72-5.96-6.12-11.16-8.84-5.17z" fill="#FFFFFF" p-id="4844"></path><path d="M227.58 658.22c-4.19-11.89-12.78-17.4-24-21.76-6.16-2.39-8.8 7.51-2.72 9.87 7.64 3 14 6.45 16.89 14.62 2.15 6.17 12.03 3.51 9.83-2.73z" fill="#FFFFFF" p-id="4845"></path><path d="M836.8 740.3c-12.27 48.72-93 54.47-101.25 0.48-1.55-10.11-16-6.66-16.75 2.27-2.49 30.49-23.82 43.66-52.53 46-30.06 2.43-45.19-17.12-57.72-41.38-3.49-6.76-13.62-4.75-15.58 2-8.32 28.75-28.56 41-57.89 38.92-28.29-2-46.23-20.71-55.73-46.08-3.08-8.22-13.28-8-16.44 0-10.4 26.13-33.21 40.82-61.2 39-26.06-1.73-41.24-22.73-54.12-42.8-4.3-6.69-12.82-4.68-15.58 2-22.88 55.7-116.51 52.85-131.78-6.82-1.94-7.6-11.58-7.84-15.58-2-12.47 18.1-25.48 32.85-47.8 37.58-19 4-46.51-1.57-56.88-19.25-5.56-9.48-20.3-0.9-14.72 8.61 13.15 22.42 40.54 29.09 65 28.38 25.82-0.74 44.2-15 59.24-33.42 27.95 57 116.91 57.07 151.5 5.41 15.17 20.8 32.65 35.8 60.71 39.34 29 3.62 53.9-11.9 68.93-34.76 13.52 24 34.23 38.29 64.44 41.87s54.31-10.35 67.45-34.58c15.84 23.75 36.53 37.21 69 34.59 26.63-2.15 46.83-14.75 57.11-35.52 29.14 43.1 110.72 30 124.65-25.31 2.65-10.67-13.8-15.19-16.48-4.53zM263 380.23c0-53.28-66.29-99.65-110.29-75.56-22.58 12.36-27.94 36.24-9.07 53.68 18.26 16.87 34.49 9.94 56.84 10.23 20.51 0.26 44.33 11.26 56 29a3.39 3.39 0 0 0 6.16-1.62c0.5-5.17 0.36-10.58 0.36-15.73zM281.1 334.3c0-41.71 51.9-78 86.34-59.15 17.68 9.68 21.87 28.37 7.1 42-14.29 13.2-27 7.79-44.49 8-16.06 0.21-34.71 8.82-43.85 22.72a2.65 2.65 0 0 1-4.82-1.27c-0.38-4.03-0.28-8.26-0.28-12.3z" fill="#09518C" p-id="4846"></path><path d="M267.65 296.11c9.2-40.68-33.4-87.54-71.16-76.75-19.38 5.54-27.59 22.85-16.2 39.42 11 16 24.62 13.55 41.63 17.63 15.62 3.74 31.9 16.26 37.76 31.84a2.65 2.65 0 0 0 5-0.17c1.25-3.88 2.08-8.08 2.97-11.97zM283.67 392.47c8.63-27.62 50.5-40.92 69.41-21.31 9.7 10.07 8.61 23.31-4 29.3-12.2 5.79-19.49-0.43-31.12-3.9-10.68-3.19-24.81-1.34-33.74 6a1.84 1.84 0 0 1-2.93-1.84c0.6-2.8 1.55-5.58 2.38-8.25z" fill="#27A0F2" p-id="4847"></path></svg>