<?xml version="1.0" standalone="no"?><!DOCTYPE svg PUBLIC "-//W3C//DTD SVG 1.1//EN" "http://www.w3.org/Graphics/SVG/1.1/DTD/svg11.dtd"><svg t="1729486573874" class="icon" viewBox="0 0 1024 1024" version="1.1" xmlns="http://www.w3.org/2000/svg" p-id="12796" width="32" height="32" xmlns:xlink="http://www.w3.org/1999/xlink"><path d="M1022.72 607.872v-494.72a64.043 64.043 0 0 0-9.472-33.877C994.731 49.28 955.392 39.85 926.336 57.77a188.587 188.587 0 0 0-93.355 134.613 224.683 224.683 0 0 0-162.474 89.984 63.403 63.403 0 0 0-12.331 37.803A64.128 64.128 0 0 0 722.133 384h44.715c44.203 0 64 24.107 64 48 0 12.032-4.907 23.253-13.867 31.659C805.547 474.368 788.224 480 766.848 480H253.653A365.227 365.227 0 0 0 38.7 559.488a96.597 96.597 0 0 0-36.523 91.947C29.866 836.565 213.461 1024 510.848 1024a32 32 0 0 0 0-64c-247.21 0-381.099-136.32-428.032-256h140.032c82.73 0 137.003 38.741 194.475 79.744 39.893 28.459 80.981 57.77 132.096 74.24 11.904 29.61 45.482 83.797 139.093 130.645 47.445 23.766 87.808 31.83 120.79 31.83 69.12 0 105.898-35.627 108.117-37.846a32 32 0 0 0 4.01-40.362l-35.242-52.822a403.755 403.755 0 0 0 136.533-281.557zM793.472 750.251a32 32 0 1 0-53.248 35.498l109.355 164.054c-24.278 8.874-67.968 13.781-132.438-18.432-98.56-49.28-110.634-104.022-110.677-104.022a32 32 0 0 0-23.936-26.41c-47.701-11.904-86.741-39.808-128.043-69.291C394.325 688.725 326.101 640 222.848 640H65.365a33.067 33.067 0 0 1 12.8-30.123A301.653 301.653 0 0 1 254.848 544h512c84.053 0 128-56.32 128-112s-43.947-112-128-112l-44.885 0.427a160.043 160.043 0 0 1 138.837-64.47 31.957 31.957 0 0 0 33.877-32.384 125.013 125.013 0 0 1 64-110.634l0.043 493.141a338.944 338.944 0 0 1-108.203 229.803l-57.045-85.632z" p-id="12797" fill="#1296db"></path><path d="M126.848 192a32 32 0 0 0 32-32c0-25.643 9.984-49.75 28.16-67.84 18.133-18.133 42.24-28.117 67.84-28.117a96.213 96.213 0 0 1 96 96V384a32 32 0 0 0 64 0V160c0-52.95 43.05-96 96-96s96 43.05 96 96a32 32 0 0 0 64 0 160.17 160.17 0 0 0-160-160 159.445 159.445 0 0 0-128.043 65.024A159.53 159.53 0 0 0 254.891 0.043h-0.043A160.17 160.17 0 0 0 94.848 160c0 17.664 14.336 32 32 32zM478.848 656a48 48 0 1 0 96 0 48 48 0 1 0-96 0z" p-id="12798" fill="#1296db"></path></svg>